<svg width="1200" height="630" xmlns="http://www.w3.org/2000/svg">
  <defs>
    <pattern id="grid" width="40" height="40" patternUnits="userSpaceOnUse">
      <path d="M 40 0 L 0 0 0 40" fill="none" stroke="#1a1a1a" stroke-width="1"/>
    </pattern>
  </defs>
  
  <rect width="1200" height="630" fill="#111111"/>
  <rect width="1200" height="630" fill="url(#grid)"/>
  
  <!-- Happy ghost left - clean -->
  <g transform="translate(80, 165) scale(0.85)">
    <path d="M125,0 C194,0 250,56 250,125 L250,310 L218,275 L187,310 L156,275 L125,310 L94,275 L62,310 L31,275 L0,310 L0,125 C0,56 56,0 125,0 Z" fill="none" stroke="#33ff00" stroke-width="4"/>
    <circle cx="80" cy="130" r="22" fill="#33ff00"/>
    <circle cx="170" cy="130" r="22" fill="#33ff00"/>
    <path d="M65,195 Q125,250 185,195" fill="none" stroke="#33ff00" stroke-width="4"/>
  </g>
  
  <!-- Sparkles for happy side -->
  <text x="310" y="180" fill="#FFD700" font-family="serif" font-size="28">✦</text>
  <text x="100" y="140" fill="#33ff00" font-family="serif" font-size="20">✦</text>
  <text x="280" y="420" fill="#FFD700" font-family="serif" font-size="22">✦</text>
  
  <!-- Angry ghost right - doom version -->
  <g transform="translate(905, 165) scale(0.85)">
    <path d="M125,0 C194,0 250,56 250,125 L250,310 L218,275 L187,310 L156,275 L125,310 L94,275 L62,310 L31,275 L0,310 L0,125 C0,56 56,0 125,0 Z" fill="none" stroke="#ff4444" stroke-width="4"/>
    <circle cx="80" cy="130" r="22" fill="#ff4444"/>
    <circle cx="170" cy="130" r="22" fill="#ff4444"/>
    <!-- Angry eyebrows -->
    <line x1="45" y1="85" x2="110" y2="105" stroke="#ff4444" stroke-width="5" stroke-linecap="round"/>
    <line x1="205" y1="85" x2="140" y2="105" stroke="#ff4444" stroke-width="5" stroke-linecap="round"/>
    <!-- Frown -->
    <path d="M65,220 Q125,180 185,220" fill="none" stroke="#ff4444" stroke-width="4"/>
  </g>
  
  <!-- Doom symbols -->
  <text x="890" y="180" fill="#ff6600" font-family="serif" font-size="24">🔥</text>
  <text x="1120" y="220" fill="#ff4444" font-family="serif" font-size="20">💀</text>
  <text x="920" y="440" fill="#ff6600" font-family="serif" font-size="22">🔥</text>
  
  <!-- Center box background -->
  <rect x="380" y="140" width="440" height="350" fill="#111111" fill-opacity="0.95"/>
  
  <!-- Split border - green parts -->
  <line x1="380" y1="140" x2="820" y2="140" stroke="#33ff00" stroke-width="3"/>
  <line x1="820" y1="140" x2="820" y2="315" stroke="#33ff00" stroke-width="3"/>
  <line x1="380" y1="140" x2="380" y2="315" stroke="#33ff00" stroke-width="3"/>
  
  <!-- Red parts -->
  <line x1="380" y1="490" x2="820" y2="490" stroke="#ff4444" stroke-width="3"/>
  <line x1="820" y1="315" x2="820" y2="490" stroke="#ff4444" stroke-width="3"/>
  <line x1="380" y1="315" x2="380" y2="490" stroke="#ff4444" stroke-width="3"/>
  
  <text x="600" y="200" text-anchor="middle" fill="#a0a0a0" font-family="monospace" font-size="42" font-weight="bold" letter-spacing="4">COUNTDOWN</text>
  <text x="475" y="265" text-anchor="middle" fill="#33ff00" font-family="monospace" font-size="36" font-weight="bold">HAPPY</text>
  <text x="600" y="265" text-anchor="middle" fill="#666" font-family="monospace" font-size="36">or</text>
  <text x="725" y="265" text-anchor="middle" fill="#ff4444" font-family="monospace" font-size="36" font-weight="bold">DOOM</text>
  <text x="600" y="340" text-anchor="middle" fill="#e0e0e0" font-family="monospace" font-size="22">Your countdown. Your choice.</text>
  <text x="600" y="400" text-anchor="middle" fill="#808080" font-family="monospace" font-size="16">Fireworks or apocalypse. Shareable links.</text>
  <text x="600" y="425" text-anchor="middle" fill="#808080" font-family="monospace" font-size="16">Custom events. Epic music.</text>
  <text x="600" y="570" text-anchor="middle" fill="#33ff00" font-family="monospace" font-size="24" letter-spacing="2">&gt; LOCALGHOST.AI/COUNTDOWN</text>
</svg>