<svg width="1200" height="630" xmlns="http://www.w3.org/2000/svg">
  <defs>
    <pattern id="scanlines" width="4" height="4" patternUnits="userSpaceOnUse">
      <line x1="0" y1="2" x2="4" y2="2" stroke="#000" stroke-width="1" opacity="0.1"/>
    </pattern>
  </defs>
  
  <rect width="1200" height="630" fill="#111111"/>
  <rect width="1200" height="630" fill="url(#scanlines)"/>
  
  <rect x="30" y="30" width="1140" height="570" fill="none" stroke="#33ff00" stroke-width="2" opacity="0.3"/>
  
  <!-- Center ghost - clean, no background -->
  <g transform="translate(475, 60)">
    <path d="M125,0 C194,0 250,56 250,125 L250,310 L218,275 L187,310 L156,275 L125,310 L94,275 L62,310 L31,275 L0,310 L0,125 C0,56 56,0 125,0 Z" fill="none" stroke="#33ff00" stroke-width="5"/>
    <circle cx="80" cy="130" r="22" fill="#33ff00"/>
    <circle cx="170" cy="130" r="22" fill="#33ff00"/>
    <path d="M65,195 Q125,250 185,195" fill="none" stroke="#33ff00" stroke-width="5"/>
  </g>
  
  <text x="600" y="420" text-anchor="middle" fill="#33ff00" font-family="monospace" font-size="56" font-weight="bold" letter-spacing="3">&gt; LOCALGHOST.AI</text>
  <text x="600" y="480" text-anchor="middle" fill="#33ff00" font-family="monospace" font-size="28" letter-spacing="6">THE ONLY CLOUD IS YOU</text>
  <text x="600" y="540" text-anchor="middle" fill="#808080" font-family="monospace" font-size="22">Your AI. Your Data. Your Hardware.</text>
</svg>